<svg version="1.2" baseProfile="tiny" viewBox="0 0 14.000 18.000" xmlns:xlink="http://www.w3.org/1999/xlink" xmlns="http://www.w3.org/2000/svg">
<path style="fill:#ffffff;" d="M12.473,16.094H1.527c-0.483,0-0.877-0.394-0.877-0.877c0-3.656,2.849-6.63,6.35-6.63
		c3.502,0,6.35,2.974,6.35,6.63C13.35,15.701,12.957,16.094,12.473,16.094z M7,9.868c-2.523,0-4.576,2.155-4.576,4.803
		c0,0.079,0.064,0.143,0.143,0.143h8.866c0.079,0,0.143-0.064,0.143-0.143C11.576,12.022,9.523,9.868,7,9.868z    M6.999,7.624c-2.101,0-3.81-1.709-3.81-3.811C3.189,1.71,4.898,0,6.999,0c2.102,0,3.812,1.71,3.812,3.813
		C10.811,5.915,9.101,7.624,6.999,7.624z M6.999,1.323c-1.372,0-2.488,1.117-2.488,2.49c0,1.372,1.116,2.489,2.488,2.489
		c1.373,0,2.489-1.116,2.489-2.489C9.488,2.44,8.372,1.323,6.999,1.323z"/>
</svg>