<svg version="1.2" baseProfile="tiny" viewBox="0 0 14.000 18.000" xmlns:xlink="http://www.w3.org/1999/xlink" xmlns="http://www.w3.org/2000/svg">
<path style="fill:#ffffff;" d="M6.674,0c-2.1,0-3.81,1.71-3.81,3.813c0,2.102,1.71,3.811,3.81,3.811   c2.102,0,3.812-1.709,3.812-3.811C10.485,1.71,8.775,0,6.674,0z M7.128,16.094H1.202c-0.483,0-0.877-0.393-0.877-0.876   c0-3.656,2.849-6.63,6.351-6.63c2.184,0,4.114,1.158,5.257,2.916c-0.4-0.146-0.826-0.239-1.275-0.239   c-2.05,0-3.718,1.668-3.718,3.719C6.939,15.372,7.016,15.741,7.128,16.094z M10.657,11.964c-1.664,0-3.018,1.354-3.018,3.019   S8.993,18,10.657,18s3.018-1.354,3.018-3.018S12.321,11.964,10.657,11.964z M12.315,13.717l-2.112,2.885   c-0.055,0.074-0.141,0.12-0.232,0.123c-0.003,0-0.007,0-0.01,0c-0.089,0-0.173-0.039-0.23-0.107l-0.888-1.064   c-0.105-0.127-0.089-0.316,0.038-0.423c0.129-0.105,0.317-0.088,0.423,0.038l0.642,0.77l1.886-2.575   c0.098-0.133,0.284-0.164,0.419-0.064C12.384,13.396,12.413,13.583,12.315,13.717z"/>
</svg>